G04 ================== begin FILE IDENTIFICATION RECORD ==================*
G04 Layout Name:  C:/Users/Oyvind/Hobby/duplexer_board/duplexer_board.brd*
G04 Film Name:    Board_outline.ger*
G04 File Format:  Gerber RS274X*
G04 File Origin:  Cadence Allegro 17.2-S050*
G04 Origin Date:  Fri Feb 22 19:10:31 2019*
G04 *
G04 Layer:  BOARD GEOMETRY/DESIGN_OUTLINE*
G04 Layer:  BOARD GEOMETRY/CUTOUT*
G04 *
G04 Offset:    (0.00 0.00)*
G04 Mirror:    No*
G04 Mode:      Positive*
G04 Rotation:  0*
G04 FullContactRelief:  No*
G04 UndefLineWidth:     0.05*
G04 ================== end FILE IDENTIFICATION RECORD ====================*
%FSLAX55Y55*MOMM*%
%IR0*IPPOS*OFA0.00000B0.00000*MIA0B0*SFA1.00000B1.00000*%
%ADD10C,.05*%
G75*
%LPD*%
G75*
G54D10*
G01X350000Y0D02*
X9040000D01*
G03X9390000Y350000I0J350000D01*
G01Y7040000D01*
G03X9040000Y7390000I-350000J0D01*
G01X350000D01*
G03X0Y7040000I0J-350000D01*
G01Y350000D01*
G03X350000Y0I350000J0D01*
G01X610000Y1150000D02*
X870000D01*
G03X890000Y1170000I0J20000D01*
G01Y1330000D01*
G03X870000Y1350000I-20000J0D01*
G01X610000D01*
G03X590000Y1330000I0J-20000D01*
G01Y1170000D01*
G03X610000Y1150000I20000J0D01*
G01Y2450000D02*
X870000D01*
G03X890000Y2470000I0J20000D01*
G01Y2630000D01*
G03X870000Y2650000I-20000J0D01*
G01X610000D01*
G03X590000Y2630000I0J-20000D01*
G01Y2470000D01*
G03X610000Y2450000I20000J0D01*
G01X1610000Y1150000D02*
X1870000D01*
G03X1890000Y1170000I0J20000D01*
G01Y1330000D01*
G03X1870000Y1350000I-20000J0D01*
G01X1610000D01*
G03X1590000Y1330000I0J-20000D01*
G01Y1170000D01*
G03X1610000Y1150000I20000J0D01*
G01Y2450000D02*
X1870000D01*
G03X1890000Y2470000I0J20000D01*
G01Y2630000D01*
G03X1870000Y2650000I-20000J0D01*
G01X1610000D01*
G03X1590000Y2630000I0J-20000D01*
G01Y2470000D01*
G03X1610000Y2450000I20000J0D01*
G01X7770000Y1350000D02*
X7510000D01*
G03X7490000Y1330000I0J-20000D01*
G01Y1170000D01*
G03X7510000Y1150000I20000J0D01*
G01X7770000D01*
G03X7790000Y1170000I0J20000D01*
G01Y1330000D01*
G03X7770000Y1350000I-20000J0D01*
G01Y2650000D02*
X7510000D01*
G03X7490000Y2630000I0J-20000D01*
G01Y2470000D01*
G03X7510000Y2450000I20000J0D01*
G01X7770000D01*
G03X7790000Y2470000I0J20000D01*
G01Y2630000D01*
G03X7770000Y2650000I-20000J0D01*
G01Y4950000D02*
X7510000D01*
G03X7490000Y4930000I0J-20000D01*
G01Y4770000D01*
G03X7510000Y4750000I20000J0D01*
G01X7770000D01*
G03X7790000Y4770000I0J20000D01*
G01Y4930000D01*
G03X7770000Y4950000I-20000J0D01*
G01Y6250000D02*
X7510000D01*
G03X7490000Y6230000I0J-20000D01*
G01Y6070000D01*
G03X7510000Y6050000I20000J0D01*
G01X7770000D01*
G03X7790000Y6070000I0J20000D01*
G01Y6230000D01*
G03X7770000Y6250000I-20000J0D01*
G01X8770000Y1350000D02*
X8510000D01*
G03X8490000Y1330000I0J-20000D01*
G01Y1170000D01*
G03X8510000Y1150000I20000J0D01*
G01X8770000D01*
G03X8790000Y1170000I0J20000D01*
G01Y1330000D01*
G03X8770000Y1350000I-20000J0D01*
G01Y2650000D02*
X8510000D01*
G03X8490000Y2630000I0J-20000D01*
G01Y2470000D01*
G03X8510000Y2450000I20000J0D01*
G01X8770000D01*
G03X8790000Y2470000I0J20000D01*
G01Y2630000D01*
G03X8770000Y2650000I-20000J0D01*
G01Y4950000D02*
X8510000D01*
G03X8490000Y4930000I0J-20000D01*
G01Y4770000D01*
G03X8510000Y4750000I20000J0D01*
G01X8770000D01*
G03X8790000Y4770000I0J20000D01*
G01Y4930000D01*
G03X8770000Y4950000I-20000J0D01*
G01Y6250000D02*
X8510000D01*
G03X8490000Y6230000I0J-20000D01*
G01Y6070000D01*
G03X8510000Y6050000I20000J0D01*
G01X8770000D01*
G03X8790000Y6070000I0J20000D01*
G01Y6230000D01*
G03X8770000Y6250000I-20000J0D01*
M02*
