M48
METRIC
T01C.5
T02C3.2
;LEADER: 12 
;HEADER: 
;CODE  : ASCII 
;FILE  : duplexer_board-1-2.drl for board C:/Users/Oyvind/Hobby/duplexer_board/#Taaaani14952.tmp ... layers TOP and BOTTOM
;T01 Holesize 1. = 0.500000 Tolerance = +0.000000/-0.000000 PLATED MM Quantity = 1259
;T02 Holesize 2. = 3.200000 Tolerance = +0.000000/-0.000000 PLATED MM Quantity = 4
%
G90
T01
X008380Y002380
R39X002000
X086380Y004380
R39X-002000
X008380Y006380
R39X002000
X092380Y008380
R45X-002000
X002380Y010380
X002380Y012380
X004380Y010380
X004380Y012380
X006380Y010380
R02X002000
X010380Y012380
X012380Y010380
X012380Y012380
X014380Y010380
X014380Y012380
X016380Y010380
X018380Y010380
X020380Y010380
X020380Y012380
X022380Y010380
X024380Y010380
R24X002000
X072380Y012380
X074380Y010380
X076380Y010380
R02X002000
X080380Y012380
X082380Y010380
X082380Y012380
X084380Y010380
X086380Y010380
R02X002000
X090380Y012380
X092380Y010380
X092380Y012380
X092380Y014380
X090380Y014380
R09X-002000
X020380Y014380
R09X-002000
X002380Y016380
R09X002000
X072380Y016380
R10X002000
X092380Y018380
R10X-002000
X020380Y018380
R09X-002000
X002380Y020380
X002380Y022380
X004380Y020380
X004380Y022380
X006380Y020380
X006380Y022380
X008380Y020380
X008380Y022380
X010380Y020380
X010380Y022380
X012380Y020380
X012380Y022380
X014380Y020380
X014380Y022380
X016380Y020380
X016380Y022380
X018380Y020380
X018380Y022380
X020380Y020380
X020380Y022380
X072380Y020380
X072380Y022380
X074380Y020380
X074380Y022380
X076380Y020380
X076380Y022380
X078380Y020380
X078380Y022380
X080380Y020380
X080380Y022380
X082380Y020380
X082380Y022380
X084380Y020380
X084380Y022380
X086380Y020380
X086380Y022380
X088380Y020380
X088380Y022380
X090380Y020380
X090380Y022380
X092380Y020380
R02Y002000
X090380Y024380
X082380Y024380
X080380Y024380
X072380Y024380
X020380Y024380
X014380Y024380
X012380Y024380
X010380Y024380
X004380Y024380
X002380Y024380
X002380Y026380
X004380Y026380
X010380Y026380
R02X002000
X020380Y026380
R06X002000
X048380Y026380
R12X002000
X080380Y026380
X082380Y026380
X090380Y026380
X092380Y026380
X092380Y030380
X092380Y028380
X090380Y030380
X090380Y028380
X088380Y030380
X088380Y028380
X086380Y030380
X086380Y028380
X084380Y030380
X084380Y028380
X082380Y030380
X082380Y028380
X080380Y030380
X080380Y028380
X078380Y030380
X078380Y028380
X076380Y030380
X076380Y028380
X074380Y030380
X074380Y028380
X072380Y030380
X072380Y028380
X070380Y030380
X070380Y028380
X068380Y030380
X068380Y028380
X066380Y030380
X066380Y028380
X064380Y030380
X064380Y028380
X062380Y030380
X062380Y028380
X060380Y030380
X060380Y028380
X058380Y030380
X058380Y028380
X056380Y030380
X056380Y028380
X054380Y030380
X054380Y028380
X052380Y030380
X052380Y028380
X050380Y030380
X050380Y028380
X048380Y030380
X048380Y028380
X032380Y030380
X032380Y028380
X030380Y030380
X030380Y028380
X028380Y030380
X028380Y028380
X026380Y030380
X026380Y028380
X024380Y030380
X024380Y028380
X022380Y030380
X022380Y028380
X020380Y030380
X020380Y028380
X018380Y030380
X018380Y028380
X016380Y030380
X016380Y028380
X014380Y030380
X014380Y028380
X012380Y030380
X012380Y028380
X010380Y030380
X010380Y028380
X008380Y030380
X008380Y028380
X006380Y030380
X006380Y028380
X004380Y030380
X004380Y028380
X002380Y030380
X002380Y028380
X002380Y032380
R15X002000
X048380Y032380
R22X002000
X092380Y034380
R22X-002000
X032380Y034380
R15X-002000
X002380Y036380
R15X002000
X060380Y036380
R16X002000
X092380Y040380
X092380Y038380
X090380Y040380
X090380Y038380
X088380Y040380
X088380Y038380
X086380Y040380
X086380Y038380
X084380Y040380
X084380Y038380
X082380Y040380
X082380Y038380
X080380Y040380
X080380Y038380
X078380Y040380
X078380Y038380
X076380Y040380
X076380Y038380
X074380Y040380
X074380Y038380
X072380Y040380
X072380Y038380
X070380Y040380
X070380Y038380
X068380Y040380
X068380Y038380
X066380Y040380
X066380Y038380
X064380Y040380
X064380Y038380
X062380Y040380
X062380Y038380
X060380Y040380
X060380Y038380
X044380Y040380
X044380Y038380
X042380Y040380
X042380Y038380
X040380Y040380
X040380Y038380
X038380Y040380
X038380Y038380
X036380Y040380
X036380Y038380
X034380Y040380
X034380Y038380
X032380Y040380
X032380Y038380
X030380Y040380
X030380Y038380
X028380Y040380
X028380Y038380
X026380Y040380
X026380Y038380
X024380Y040380
X024380Y038380
X022380Y040380
X022380Y038380
X020380Y040380
X020380Y038380
X018380Y040380
X018380Y038380
X016380Y040380
X016380Y038380
X014380Y040380
X014380Y038380
X012380Y040380
X012380Y038380
X010380Y040380
X010380Y038380
X008380Y040380
X008380Y038380
X006380Y040380
X006380Y038380
X004380Y040380
X004380Y038380
X002380Y040380
X002380Y038380
X002380Y042380
R21X002000
X060380Y042380
R16X002000
X092380Y044380
R16X-002000
X044380Y044380
R21X-002000
X002380Y046380
R21X002000
X060380Y046380
R16X002000
X092380Y050380
X092380Y048380
X090380Y050380
X090380Y048380
X088380Y050380
R03X-002000
X082380Y048380
X080380Y050380
X080380Y048380
X078380Y050380
X076380Y050380
R02X-002000
X072380Y048380
X056380Y050380
X054380Y050380
R05X-002000
X044380Y048380
X042380Y050380
X042380Y048380
X040380Y050380
X040380Y048380
X038380Y050380
X038380Y048380
X036380Y050380
X036380Y048380
X034380Y050380
X034380Y048380
X032380Y050380
X032380Y048380
X030380Y050380
X030380Y048380
X028380Y050380
X028380Y048380
X026380Y050380
X026380Y048380
X024380Y050380
X024380Y048380
X022380Y050380
X022380Y048380
X020380Y050380
X020380Y048380
X018380Y050380
X018380Y048380
X016380Y050380
X016380Y048380
X014380Y050380
X014380Y048380
X012380Y050380
X012380Y048380
X010380Y050380
X010380Y048380
X008380Y050380
X008380Y048380
X006380Y050380
X006380Y048380
X004380Y050380
X004380Y048380
X002380Y050380
X002380Y048380
X002380Y052380
X004380Y052380
R26X002000
X072380Y052380
R10X002000
X092380Y054380
R10X-002000
X056380Y054380
R27X-002000
X002380Y056380
X002380Y058380
X004380Y056380
X004380Y058380
X006380Y056380
X006380Y058380
X008380Y056380
X008380Y058380
X010380Y056380
X010380Y058380
X012380Y056380
X012380Y058380
X014380Y056380
X014380Y058380
X016380Y056380
X016380Y058380
X018380Y056380
X018380Y058380
X020380Y056380
X020380Y058380
X022380Y056380
X022380Y058380
X024380Y056380
X024380Y058380
X026380Y056380
X026380Y058380
X028380Y056380
X028380Y058380
X030380Y056380
X030380Y058380
X032380Y056380
X032380Y058380
X034380Y056380
X034380Y058380
X036380Y056380
X036380Y058380
X038380Y056380
X038380Y058380
X040380Y056380
X040380Y058380
X042380Y056380
X042380Y058380
X044380Y056380
X044380Y058380
X046380Y056380
X046380Y058380
X048380Y056380
X048380Y058380
X050380Y056380
X050380Y058380
X052380Y056380
X052380Y058380
X054380Y056380
X054380Y058380
X056380Y056380
X056380Y058380
X072380Y056380
X072380Y058380
X074380Y056380
X074380Y058380
X076380Y056380
X076380Y058380
X078380Y056380
X078380Y058380
X080380Y056380
X080380Y058380
X082380Y056380
X082380Y058380
X084380Y056380
X084380Y058380
X086380Y056380
X086380Y058380
X088380Y056380
X088380Y058380
X090380Y056380
X090380Y058380
X092380Y056380
R02Y002000
X090380Y060380
X082380Y060380
X080380Y060380
X072380Y060380
X056380Y060380
R27X-002000
X002380Y062380
R35X002000
X080380Y062380
X082380Y062380
X090380Y062380
X092380Y062380
X092380Y064380
R45X-002000
X002380Y066380
R03X002000
X008380Y068380
X010380Y066380
X010380Y068380
X012380Y066380
X012380Y068380
X014380Y066380
X014380Y068380
X016380Y066380
X016380Y068380
X018380Y066380
X018380Y068380
X020380Y066380
X020380Y068380
X022380Y066380
X022380Y068380
X024380Y066380
X024380Y068380
X026380Y066380
X026380Y068380
X028380Y066380
X028380Y068380
X030380Y066380
X030380Y068380
X032380Y066380
X032380Y068380
X034380Y066380
X034380Y068380
X036380Y066380
X036380Y068380
X038380Y066380
X038380Y068380
X040380Y066380
X040380Y068380
X042380Y066380
X042380Y068380
X044380Y066380
X044380Y068380
X046380Y066380
X046380Y068380
X048380Y066380
X048380Y068380
X050380Y066380
X050380Y068380
X052380Y066380
X052380Y068380
X054380Y066380
X054380Y068380
X056380Y066380
X056380Y068380
X058380Y066380
X058380Y068380
X060380Y066380
X060380Y068380
X062380Y066380
X062380Y068380
X064380Y066380
X064380Y068380
X066380Y066380
X066380Y068380
X068380Y066380
X068380Y068380
X070380Y066380
X070380Y068380
X072380Y066380
X072380Y068380
X074380Y066380
X074380Y068380
X076380Y066380
X076380Y068380
X078380Y066380
X078380Y068380
X080380Y066380
X080380Y068380
X082380Y066380
X082380Y068380
X084380Y066380
X084380Y068380
X086380Y066380
X086380Y068380
X088380Y066380
X090380Y066380
X092380Y066380
X086380Y070380
R39X-002000
X008380Y072380
R39X002000
T02
X003600Y003600
X003600Y070300
X090300Y070300
X090300Y003600
M30
