G04 ================== begin FILE IDENTIFICATION RECORD ==================*
G04 Layout Name:  C:/Users/Oyvind/Hobby/duplexer_board/duplexer_board.brd*
G04 Film Name:    Silkscreen_top.ger*
G04 File Format:  Gerber RS274X*
G04 File Origin:  Cadence Allegro 17.2-S050*
G04 Origin Date:  Fri Feb 22 19:10:31 2019*
G04 *
G04 Layer:  PACKAGE GEOMETRY/SILKSCREEN_TOP*
G04 Layer:  BOARD GEOMETRY/SILKSCREEN_TOP*
G04 Layer:  REF DES/SILKSCREEN_TOP*
G04 *
G04 Offset:    (0.00 0.00)*
G04 Mirror:    No*
G04 Mode:      Positive*
G04 Rotation:  0*
G04 FullContactRelief:  No*
G04 UndefLineWidth:     0.05*
G04 ================== end FILE IDENTIFICATION RECORD ====================*
%FSLAX55Y55*MOMM*%
%IR0*IPPOS*OFA0.00000B0.00000*MIA0B0*SFA1.00000B1.00000*%
%ADD10C,.5*%
G75*
%LPD*%
G75*
G54D10*
G01X700000Y4700000D02*
X1020000D01*
G01Y4520000D02*
X700000D01*
G01X820000Y4700000D02*
Y4520000D01*
G01X770000Y4700000D02*
Y4520000D01*
G01X720000Y4700000D02*
Y4520000D01*
G01X1020000Y4670000D02*
X1200000D01*
G01X1020000Y4550000D02*
X1200000D01*
G01D02*
Y4670000D01*
G01X1380000Y4610000D02*
X1200000D01*
G01X1020000Y4700000D02*
Y4520000D01*
G01X970000Y4700000D02*
Y4520000D01*
G01X920000Y4700000D02*
Y4520000D01*
G01X870000Y4700000D02*
Y4520000D01*
G01X920000Y7170000D02*
Y6920000D01*
G03X930000Y6910000I10000J0D01*
G01X1040000D01*
G01X1160000D02*
Y7080000D01*
X1240000Y7160000D01*
X1320000Y7080000D01*
Y6920000D01*
G01Y7010000D02*
X1160000D01*
G01X1460000Y4690000D02*
X1380000Y4610000D01*
G01X1542000Y4773000D02*
G03X1457000I-42500J-42516D01*
G01D02*
G03Y4688000I42516J-42500D01*
G01X1547000Y4853000D02*
G03Y4768000I42516J-42500D01*
G01X1560000Y4610000D02*
X1380000D01*
G01X1740000D02*
X1560000D01*
G01X1632000Y4853000D02*
G03X1547000I-42500J-42516D01*
G01X1627000Y4943000D02*
G03Y4858000I42516J-42500D01*
G01X1684000Y5302000D02*
X1556000Y5430000D01*
G01X1620000Y5239000D02*
X1747000Y5366000D01*
G01X1622000Y5498000D02*
X1495000Y5370000D01*
G01X1544000Y5519000D02*
X1473000Y5448000D01*
G01X1466000Y5540000D02*
X1459000Y5533000D01*
G01X1450000Y7110000D02*
X1500000Y7160000D01*
Y6920000D01*
G01X1930000Y3900000D02*
X2110000D01*
G01X1970000Y3830000D02*
X2070000D01*
G01X1962000Y4434000D02*
G03X2022000Y4374000I60051J51D01*
G01X1955000Y4314000D02*
G03X2015000Y4254000I59958J-42D01*
G01Y4374000D02*
G03X1955000Y4314000I141J-60141D01*
G01X1962000Y4194000D02*
G03X2022000Y4134000I59913J-87D01*
G01Y4254000D02*
G03X1962000Y4194000I234J-60234D01*
G01X1955000Y4073000D02*
G03X2015000Y4013000I60152J152D01*
G01Y4133000D02*
G03X1955000Y4073000I-54J-59946D01*
G01X1740000Y4700000D02*
Y4520000D01*
G01X1840000Y4700000D02*
Y4520000D01*
G01Y4610000D02*
X2020000D01*
G01X2022000Y4494000D02*
G03X1962000Y4434000I95J-60095D01*
G01X1712000Y4943000D02*
G03X1627000I-42500J-42516D01*
G01X1802000Y5023000D02*
G03X1717000I-42500J-42516D01*
G01D02*
G03Y4938000I42516J-42500D01*
G01X1754000Y5232000D02*
X1882000Y5104000D01*
G01X1880000Y5100000D02*
X1800000Y5020000D01*
G01X1960000Y5180000D02*
X1880000Y5100000D01*
G01X1691000Y5168000D02*
X1818000Y5295000D01*
G01X1957000Y5263000D02*
G03Y5178000I42516J-42500D01*
G01X2042000Y5263000D02*
G03X1957000I-42500J-42516D01*
G01X2112000Y5978000D02*
X1985000Y5850000D01*
G01X2034000Y5999000D02*
X1963000Y5928000D01*
G01X1956000Y6020000D02*
X1949000Y6013000D01*
G01X1670000Y7170000D02*
Y6930000D01*
G01X1680000Y7020000D02*
Y7030000D01*
X1810000Y7160000D01*
G01X1680000Y7030000D02*
X1690000D01*
X1790000Y6930000D01*
G01X2016000Y4017000D02*
Y3904000D01*
G01X2010000Y3760000D02*
X2020000D01*
G01X2300000Y4610000D02*
X2480000D01*
G01X2300000Y4700000D02*
Y4520000D01*
G01X2200000Y4700000D02*
Y4520000D01*
G01Y4610000D02*
X2020000D01*
G01X2023000Y4604000D02*
Y4490000D01*
G01X2380000Y5590000D02*
X2300000Y5510000D01*
G01X2217000Y5513000D02*
G03Y5428000I42516J-42500D01*
G01X2302000Y5513000D02*
G03X2217000I-42500J-42516D01*
G01X2127000Y5433000D02*
G03Y5348000I42516J-42500D01*
G01X2212000Y5433000D02*
G03X2127000I-42500J-42516D01*
G01X2047000Y5343000D02*
G03Y5258000I42516J-42500D01*
G01X2132000Y5343000D02*
G03X2047000I-42500J-42516D01*
G01X2191000Y5658000D02*
X2318000Y5785000D01*
G01X2120000Y5729000D02*
X2247000Y5856000D01*
G01X2184000Y5792000D02*
X2056000Y5920000D01*
G01X2254000Y5722000D02*
X2382000Y5594000D01*
G01X2310000Y7160000D02*
X2190000D01*
Y7060000D01*
X2260000D01*
G02X2320000Y7000000I0J-60000D01*
G01Y6980000D01*
G02X2250000Y6910000I-70000J0D01*
G01X2200000D01*
G01X2486000Y4017000D02*
Y3904000D01*
G01X2425000Y4073000D02*
G03X2485000Y4013000I60152J152D01*
G01X2400000Y3900000D02*
X2580000D01*
G01X2440000Y3830000D02*
X2540000D01*
G01X2480000Y3760000D02*
X2490000D01*
G01X2432000Y4434000D02*
G03X2492000Y4374000I60051J51D01*
G01X2425000Y4314000D02*
G03X2485000Y4254000I59958J-42D01*
G01Y4374000D02*
G03X2425000Y4314000I141J-60141D01*
G01X2432000Y4194000D02*
G03X2492000Y4134000I59913J-87D01*
G01Y4254000D02*
G03X2432000Y4194000I234J-60234D01*
G01X2485000Y4133000D02*
G03X2425000Y4073000I-54J-59946D01*
G01X2660000Y4700000D02*
Y4520000D01*
G01Y4610000D02*
X2480000D01*
G01X2493000Y4604000D02*
Y4490000D01*
G01X2492000Y4494000D02*
G03X2432000Y4434000I95J-60095D01*
G01X2460000Y5670000D02*
X2380000Y5590000D01*
G01X2627000Y5923000D02*
G03Y5838000I42516J-42500D01*
G01X2547000Y5833000D02*
G03Y5748000I42516J-42500D01*
G01X2632000Y5833000D02*
G03X2547000I-42500J-42516D01*
G01X2457000Y5753000D02*
G03Y5668000I42516J-42500D01*
G01X2542000Y5753000D02*
G03X2457000I-42500J-42516D01*
G01X2717000Y6003000D02*
G03Y5918000I42516J-42500D01*
G01X2802000Y6003000D02*
G03X2717000I-42500J-42516D01*
G01X2712000Y5923000D02*
G03X2627000I-42500J-42516D01*
G01X2470000Y6990000D02*
X2550000D01*
G01X2720000Y7010000D02*
X2738000D01*
G03X2810000Y7040000I-416J102398D01*
G03Y7130000I-45000J45000D01*
G01X2790000Y7150000D01*
G03X2700000I-45000J-45000D01*
G01Y6910000D01*
G01X2760000Y4610000D02*
X2940000D01*
G01X2760000Y4700000D02*
Y4520000D01*
G01X3240000Y4670000D02*
X3060000D01*
G01X3240000Y4550000D02*
X3060000D01*
G01Y4670000D02*
Y4550000D01*
G01X2880000Y4610000D02*
X3060000D01*
G01X2880000Y6080000D02*
X2800000Y6000000D01*
G01X3240000Y6140000D02*
X3060000D01*
G01X3240000Y6020000D02*
X3060000D01*
G01Y6140000D02*
Y6020000D01*
G01X2880000Y6080000D02*
X3060000D01*
G01X3010000Y7080000D02*
G02X3044000Y7066000I-10J-48310D01*
G01X3070000Y7040000D01*
G02Y6950000I-45000J-45000D01*
G01X3030000Y6910000D01*
G02X3000000I-15000J15000D01*
G01X2960000Y6950000D01*
G02Y7030000I40000J40000D01*
G01X3010000Y7080000D01*
G01X3490000Y4520000D02*
Y4700000D01*
G01X3440000Y4520000D02*
Y4700000D01*
G01X3390000Y4520000D02*
Y4700000D01*
G01X3340000Y4520000D02*
Y4700000D01*
G01X3290000Y4520000D02*
Y4700000D01*
G01X3240000D02*
X3560000D01*
G01Y4520000D02*
X3240000D01*
G01D02*
Y4700000D01*
G01X3490000Y5990000D02*
Y6170000D01*
G01X3440000Y5990000D02*
Y6170000D01*
G01X3390000Y5990000D02*
Y6170000D01*
G01X3340000Y5990000D02*
Y6170000D01*
G01X3290000Y5990000D02*
Y6170000D01*
G01X3240000D02*
X3560000D01*
G01Y5990000D02*
X3240000D01*
G01D02*
Y6170000D01*
G01X3270000Y7170000D02*
Y6920000D01*
G01X3480000Y7020000D02*
X3570000D01*
G03X3593000Y7076000I0J32723D01*
G01X3570000Y7100000D01*
G03X3500000I-35000J-35000D01*
G01X3460000Y7060000D01*
G03Y6970000I45000J-45000D01*
G01X3520000Y6910000D01*
G03X3580000I30000J30000D01*
G01X3590000Y6920000D01*
G01X3540000Y4520000D02*
Y4700000D01*
G01Y5990000D02*
Y6170000D01*
G01X3960000Y6910000D02*
Y7160000D01*
X4040000D01*
X4110000Y7090000D01*
Y6980000D01*
X4040000Y6910000D01*
X3960000D01*
G01X4230000Y7080000D02*
Y6940000D01*
X4260000Y6910000D01*
X4310000D01*
X4340000Y6940000D01*
Y7080000D01*
G01X4490000Y6830000D02*
Y7070000D01*
X4510000Y7090000D01*
X4570000D01*
X4600000Y7060000D01*
Y6950000D01*
X4580000Y6930000D01*
X4510000D01*
G01X4790000Y7160000D02*
Y6920000D01*
G01X4990000Y7020000D02*
X5100000D01*
X5110000Y7030000D01*
Y7070000D01*
X5080000Y7100000D01*
X5000000D01*
X4980000Y7080000D01*
Y6970000D01*
X5030000Y6920000D01*
X5090000D01*
X5110000Y6940000D01*
G01X5250000Y6920000D02*
X5380000Y7050000D01*
G01X5370000Y6910000D02*
Y6930000D01*
X5250000Y7050000D01*
G01X5520000Y7020000D02*
X5600000D01*
X5620000Y7040000D01*
Y7060000D01*
X5580000Y7100000D01*
X5530000D01*
X5500000Y7070000D01*
Y6950000D01*
X5530000Y6920000D01*
X5590000D01*
X5610000Y6940000D01*
G01X5870000Y7060000D02*
X5840000Y7090000D01*
X5760000D01*
Y6910000D01*
G01X6320000Y7160000D02*
Y6920000D01*
G01X6240000Y7160000D02*
X6400000D01*
G01X6530000Y7030000D02*
X6610000D01*
X6640000Y7060000D01*
X6590000Y7110000D01*
X6540000D01*
X6520000Y7090000D01*
Y6950000D01*
X6550000Y6920000D01*
X6610000D01*
X6630000Y6940000D01*
G01X6740000Y6920000D02*
Y7090000D01*
X6770000D01*
X6830000Y7030000D01*
Y6930000D01*
G01X6920000Y6920000D02*
Y7080000D01*
X6880000D01*
X6830000Y7030000D01*
G01X7020000Y6820000D02*
Y7080000D01*
X7100000D01*
X7140000Y7040000D01*
Y6950000D01*
X7100000Y6910000D01*
X7070000D01*
X7020000Y6960000D01*
G01X7330000Y6910000D02*
Y7150000D01*
G01X7650000Y6920000D02*
Y7080000D01*
X7640000Y7090000D01*
X7570000D01*
X7520000Y7040000D01*
Y6960000D01*
X7560000Y6920000D01*
X7580000D01*
X7650000Y6990000D01*
G01X7840000Y7170000D02*
Y6910000D01*
G01X7900000Y7090000D02*
X7780000D01*
G01X8070000Y7020000D02*
X8140000D01*
X8160000Y7040000D01*
Y7080000D01*
X8130000Y7110000D01*
X8070000D01*
X8030000Y7070000D01*
Y6970000D01*
X8080000Y6920000D01*
X8130000D01*
X8150000Y6940000D01*
M02*
