G04 ================== begin FILE IDENTIFICATION RECORD ==================*
G04 Layout Name:  C:/Users/Oyvind/Hobby/duplexer_board/duplexer_board.brd*
G04 Film Name:    Soldermask_top.ger*
G04 File Format:  Gerber RS274X*
G04 File Origin:  Cadence Allegro 17.2-S050*
G04 Origin Date:  Fri Feb 22 19:10:31 2019*
G04 *
G04 Layer:  PACKAGE GEOMETRY/SOLDERMASK_TOP*
G04 Layer:  BOARD GEOMETRY/SOLDERMASK_TOP*
G04 Layer:  PIN/SOLDERMASK_TOP*
G04 Layer:  VIA CLASS/SOLDERMASK_TOP*
G04 *
G04 Offset:    (0.00 0.00)*
G04 Mirror:    No*
G04 Mode:      Positive*
G04 Rotation:  0*
G04 FullContactRelief:  No*
G04 UndefLineWidth:     0.05*
G04 ================== end FILE IDENTIFICATION RECORD ====================*
%FSLAX55Y55*MOMM*%
%IR0*IPPOS*OFA0.00000B0.00000*MIA0B0*SFA1.00000B1.00000*%
G75*
%LPD*%
G75*
G36*
G01X710000Y360000D02*
G03I-350000J0D01*
G37*
G36*
G01Y7030000D02*
G03I-350000J0D01*
G37*
G36*
G01X5610000Y6400000D02*
X7170000D01*
G02X7190000Y6380000I0J-20000D01*
G01Y6020000D01*
G03X7210000Y6000000I20000J0D01*
G01X9170000D01*
G02X9190000Y5980000I0J-20000D01*
G01Y5020000D01*
G02X9170000Y5000000I-20000J0D01*
G01X7210000D01*
G03X7190000Y4980000I0J-20000D01*
G01Y4620000D01*
G02X7170000Y4600000I-20000J0D01*
G01X6210000D01*
G03X6190000Y4580000I0J-20000D01*
G01Y3420000D01*
G02X6170000Y3400000I-20000J0D01*
G01X5010000D01*
G03X4990000Y3380000I0J-20000D01*
G01Y2820000D01*
G03X5010000Y2800000I20000J0D01*
G01X7170000D01*
G02X7190000Y2780000I0J-20000D01*
G01Y2420000D01*
G03X7210000Y2400000I20000J0D01*
G01X9170000D01*
G02X9190000Y2380000I0J-20000D01*
G01Y1420000D01*
G02X9170000Y1400000I-20000J0D01*
G01X7210000D01*
G03X7190000Y1380000I0J-20000D01*
G01Y1020000D01*
G02X7170000Y1000000I-20000J0D01*
G01X5810000D01*
G03X5790000Y980000I0J-20000D01*
G01Y220000D01*
G02X5770000Y200000I-20000J0D01*
G01X4810000D01*
G02X4790000Y220000I0J20000D01*
G01Y980000D01*
G03X4770000Y1000000I-20000J0D01*
G01X4610000D01*
G03X4590000Y980000I0J-20000D01*
G01Y220000D01*
G02X4570000Y200000I-20000J0D01*
G01X3610000D01*
G02X3590000Y220000I0J20000D01*
G01Y980000D01*
G03X3570000Y1000000I-20000J0D01*
G01X2210000D01*
G02X2190000Y1020000I0J20000D01*
G01Y1380000D01*
G03X2170000Y1400000I-20000J0D01*
G01X210000D01*
G02X190000Y1420000I0J20000D01*
G01Y2380000D01*
G02X210000Y2400000I20000J0D01*
G01X2170000D01*
G03X2190000Y2420000I0J20000D01*
G01Y2780000D01*
G02X2210000Y2800000I20000J0D01*
G01X3170000D01*
G03X3190000Y2820000I0J20000D01*
G01Y3980000D01*
G02X3210000Y4000000I20000J0D01*
G01X4370000D01*
G03X4390000Y4020000I0J20000D01*
G01Y5180000D01*
G02X4410000Y5200000I20000J0D01*
G01X5570000D01*
G03X5590000Y5220000I0J20000D01*
G01Y6380000D01*
G02X5610000Y6400000I20000J0D01*
G37*
G36*
G01X9380000Y360000D02*
G03I-350000J0D01*
G37*
G36*
G01Y7030000D02*
G03I-350000J0D01*
G37*
M02*
